<svg width="34" height="49" viewBox="0 0 34 49" fill="none" xmlns="http://www.w3.org/2000/svg">
<path d="M17.3303 49L0 19.4122H10.9805L20.8357 39.4468L15.1476 39.2478L23.6803 19.4122H34L17.5948 49H17.3303Z" fill="#E95144"/>
<path fill-rule="evenodd" clip-rule="evenodd" d="M7.57504 4.91225C7.57504 2.29686 11.1413 0.893029 13.6001 4.99132C14.0021 5.66158 14.3154 6.26879 14.6837 7.00315C15.2271 8.08716 15.3405 8.75546 15.5627 9.22015C15.1591 9.1257 14.7028 9.09965 14.2485 9.02643C13.776 8.95035 13.4241 8.88938 12.9688 8.79845C11.6789 8.5409 9.5035 7.88549 8.57213 7.01083C7.92758 6.40545 7.57491 5.90363 7.57491 4.91225H7.57504ZM9.65197 0H10.2253C11.443 0.0686545 12.6548 0.57008 13.69 1.34938C14.7134 2.11969 14.9532 2.48302 15.7035 3.41097C16.178 3.99798 16.8814 5.66653 16.9192 6.12171H17.0701C17.2089 5.52388 18.656 3.17035 19.1624 2.5522C19.9007 1.65148 20.301 1.25662 21.3146 0.704913C22.048 0.305884 22.9017 0.0505464 23.7621 0.000130274H24.381C24.9817 0.0363465 25.5721 0.180299 26.1132 0.453224C26.3863 0.591184 26.576 0.673517 26.8353 0.862545C27.849 1.60211 28.5995 3.03695 28.5995 4.53458C28.5995 5.58863 28.5942 5.83771 28.1232 6.77764C27.7647 7.49324 27.6437 7.50965 27.2446 8.01251L24.8317 9.82475H33.8743V14.8127C33.8743 15.8408 33.9496 16.5878 33.9496 17.609H17.9743V9.90044H16.015V17.609H0.114873L0.106689 9.89223C0.276206 9.72197 7.81963 9.82475 8.40405 9.82475C8.35637 9.78333 8.31338 9.7419 8.23868 9.68849L7.80444 9.4437C6.49247 8.64421 5.16387 7.05109 5.16387 5.29043C5.16387 3.76961 5.79635 2.23733 6.56677 1.40722C6.57729 1.39589 6.5921 1.37921 6.60288 1.36788L7.04648 0.981355C7.85653 0.358775 8.74866 0.0531518 9.6521 0.000260548L9.65197 0ZM18.4263 9.37127C18.5406 7.9944 20.9931 3.9817 21.6875 3.34635C22.5688 2.53956 24.4685 1.95398 25.5408 2.91632C26.8082 4.054 26.072 5.89816 24.7742 6.9711C24.6061 7.10997 24.4741 7.19843 24.2904 7.31711C23.9562 7.53271 23.5983 7.68344 23.2494 7.86022C21.8482 8.56982 20.138 8.97146 18.4263 9.3714V9.37127Z" fill="url(#paint0_linear_223_32)"/>
<defs>
<linearGradient id="paint0_linear_223_32" x1="0.37233" y1="8.50794" x2="32.2125" y2="17.0224" gradientUnits="userSpaceOnUse">
<stop stop-color="#4E5BA4"/>
<stop offset="0.360784" stop-color="#E73A4F"/>
<stop offset="0.65098" stop-color="#EB6237"/>
<stop offset="1" stop-color="#FACB35"/>
</linearGradient>
</defs>
</svg>
